General
Complete name                    : Evening.mkv
Format                           : Matroska
File size                        : 853 MiB
Duration                         : 1h 57mn
Overall bit rate                 : 1 019 Kbps


Video
ID                               : 1
Format                           : AVC
Duration                         : 1h 56mn
Bit rate                         : 551 Kbps
Width                            : 718 pixels
Height                           : 356 pixels
Display aspect ratio             : 2.35:1
Original display aspect ratio    : 2.35:1
Frame rate                       : 23.976 fps
Resolution                       : 8 bits
Colorimetry                      : 4:2:0
Scan type                        : Progressive
Bits/(Pixel*Frame)               : 0.090
Stream size                      : 461 MiB (54%)
Writing library                  : x264 core 79

Audio
ID                               : 2
Format                           : AC-3
Format/Info                      : Audio Coding 3
Codec ID                         : A_AC3
Duration                         : 1h 57mn
Bit rate mode                    : Constant
Bit rate                         : 448 Kbps
Channel(s)                       : 6 channels
Channel positions                : Front: L C R, Surround: L R, LFE
Sampling rate                    : 48.0 KHz
Stream size                      : 375 MiB (44%)
Language                         : English

Text #1
Language                         : English

Text #2
Language                         : Swedish

